# xmcd CD database file
#
# Track frame offsets:
#	150
#	13452
#	32497
#	53014
#	71332
#	87907
#	105892
#	121232
#	138017
#	153260
#	167452
#	185500
#
# Disc length: 2645 seconds
#
# Revision: 2
# Processed by: cddbd v1.5.1PL0 Copyright (c) Steve Scherf et al.
# Submitted via: CDex 1.51
#
DISCID=880a530c
DTITLE=Big Al Blake and The Hollywood Fats Band - Mr Blake's Blues
DYEAR=1997
DGENRE=Blues
TTITLE0=Old Time Boogie
TTITLE1=He Don't Love You
TTITLE2=Papa's Boogie
TTITLE3=Hoppin' Toad
TTITLE4=Shelby Ford Blues
TTITLE5=Leavin' California
TTITLE6=Rock Me, Baby
TTITLE7=The Honeydripper
TTITLE8=Santa Ana's Blowin'
TTITLE9=Jalopy To Drive
TTITLE10=A Rambler and A Rolliln' Stone
TTITLE11=Easy (Very Greazy)
EXTD=YEAR: 1997
EXTT0=
EXTT1=
EXTT2=
EXTT3=
EXTT4=
EXTT5=
EXTT6=
EXTT7=
EXTT8=
EXTT9=
EXTT10=
EXTT11=
PLAYORDER=
